<svg xmlns="http://www.w3.org/2000/svg" version="1.1" xmlns:xlink="http://www.w3.org/1999/xlink" xmlns:svgjs="http://svgjs.dev/svgjs" width="1000" height="1000" viewBox="0 0 1000 1000"><rect width="1000" height="1000" fill="#ffffff"></rect><g transform="matrix(0.7,0,0,0.7,149.57575757575756,379.3265346741179)"><svg viewBox="0 0 396 137" data-background-color="#ffffff" preserveAspectRatio="xMidYMid meet" height="345" width="1000" xmlns="http://www.w3.org/2000/svg" xmlns:xlink="http://www.w3.org/1999/xlink"><g id="tight-bounds" transform="matrix(1,0,0,1,0.2400000000000091,-0.04341718573147091)"><svg viewBox="0 0 395.52 137.08682440140853" height="137.08682440140853" width="395.52"><g><svg viewBox="0 0 559.5179027613249 193.9283284923294" height="137.08682440140853" width="395.52"><g transform="matrix(1,0,0,1,163.99790276132495,3.4145605354414243)"><svg viewBox="0 0 395.52 187.09920742144655" height="187.09920742144655" width="395.52"><g id="textblocktransform"><svg viewBox="0 0 395.52 187.09920742144655" height="187.09920742144655" width="395.52" id="textblock"><g><svg viewBox="0 0 395.52 134.74908586297815" height="134.74908586297815" width="395.52"><rect width="395.52" height="134.74908586297815" x="0" y="0" opacity="1" fill="#000000" data-fill-palette-color="tertiary"></rect><g transform="matrix(1,0,0,1,23.461705032,23.46170503200001)"><svg width="348.596589936" viewBox="1.600000023841858 -35.04999923706055 141.6899871826172 35.70000076293945" height="87.82567579897814" data-palette-color="#ffffff"><path d="M17.6 0.45Q15.95 0.45 13.88 0.38 11.8 0.3 10.65 0.25L10.65 0.25 7.8-0.05 7.8-30.7Q6.5-30.7 6-30.25L6-30.25Q5.45-29.8 5.35-28.6L5.35-28.6 1.6-28.65Q1.6-31.65 3.45-33.25L3.45-33.25Q4.95-34.6 7.85-34.6L7.85-34.6 21.15-34.55Q25.9-34.4 29.5-32.15 33.1-29.9 35.1-26 37.1-22.1 37.1-17.1L37.1-17.1Q37.1-8.25 32.27-3.9 27.45 0.45 17.6 0.45L17.6 0.45ZM18.25-3.3Q25.55-3.3 29.28-6.78 33-10.25 33-17.1L33-17.1Q33-21.25 31.48-24.33 29.95-27.4 27.15-29.08 24.35-30.75 20.6-30.75L20.6-30.75 11.9-30.75 11.9-3.55Q12.9-3.45 14.85-3.38 16.8-3.3 18.25-3.3L18.25-3.3ZM46.9-30.4Q45.6-30.4 45.1-29.95L45.1-29.95Q44.55-29.5 44.45-28.3L44.45-28.3 40.7-28.35Q40.7-31.35 42.55-32.95L42.55-32.95Q44.05-34.3 46.95-34.3L46.95-34.3 58.35-34.3Q60.75-34.3 62.5-33.45L62.5-33.45Q65-32.25 66.55-29.55 68.1-26.85 68.1-23.7L68.1-23.7Q68.1-21.05 66.9-18.85 65.7-16.65 63.55-15.3L63.55-15.3Q62.95-14.95 62-14.7 61.05-14.45 60.15-14.45L60.15-14.45Q60.95-14.15 61.7-13.2L61.7-13.2 63.35-11.1 68.5-3.85Q68.9-3.3 69.45-3.3L69.45-3.3Q70.2-3.3 70.5-4.1L70.5-4.1 73.65-1.9Q72.95-0.8 71.77-0.15 70.6 0.5 69.3 0.5L69.3 0.5Q68.1 0.5 67.05-0.05 66-0.6 65.25-1.6L65.25-1.6 59.5-9.6Q59.2-10 58.37-11.18 57.55-12.35 56.52-12.83 55.5-13.3 53.85-13.4L53.85-13.4 53.85-17.25 57.65-17.25Q60.6-17.25 62.3-18.98 64-20.7 64-23.7L64-23.7Q64-26.7 62.37-28.63 60.75-30.55 58.2-30.55L58.2-30.55 51-30.55 51 0.05 46.9 0.05 46.9-30.4ZM92.09 0.65Q88.05 0.65 85.09-1.28 82.15-3.2 80.57-6.4 79-9.6 79-13.35L79-13.35 79-29.4Q79-30.15 78.59-30.73 78.2-31.3 77.34-31.3L77.34-31.3Q76.15-31.3 75.59-30.45L75.59-30.45 72.84-32.5Q73.34-33.5 74.52-34.27 75.7-35.05 77.5-35.05L77.5-35.05Q80.15-35.05 81.62-33.48 83.09-31.9 83.09-29.4L83.09-29.4 83.09-13.35Q83.09-10.55 84.15-8.22 85.2-5.9 87.22-4.5 89.25-3.1 92.05-3.1L92.05-3.1Q95-3.1 97-4.58 99-6.05 99.97-8.4 100.95-10.75 100.95-13.35L100.95-13.35 100.95-34.15 105.05-34.15 105.05-13.35Q105.05-9.85 103.59-6.63 102.15-3.4 99.22-1.38 96.3 0.65 92.09 0.65L92.09 0.65ZM127.34-17.8L143.29-17.8 143.29-13.55Q143.29-9.5 141.24-6.25 139.19-3 135.82-1.18 132.44 0.65 128.64 0.65L128.64 0.65Q123.89 0.65 120.04-1.68 116.19-4 113.99-8.08 111.79-12.15 111.79-17.15L111.79-17.15Q111.79-22 114.09-26.05 116.39-30.1 120.34-32.45 124.29-34.8 129.04-34.8L129.04-34.8Q131.44-34.8 134.19-34.02 136.94-33.25 138.92-31.55 140.89-29.85 140.89-27.35L140.89-27.35Q140.89-25.15 139.44-23.63 137.99-22.1 135.94-22.1L135.94-22.1Q134.99-22.1 134.02-22.48 133.04-22.85 132.39-23.55L132.39-23.55 134.69-26.4Q135.34-25.85 135.89-25.85L135.89-25.85Q136.44-25.85 136.74-26.23 137.04-26.6 137.04-27.2L137.04-27.2Q137.04-29.05 134.42-30.03 131.79-31 129.09-31L129.09-31Q125.34-31 122.32-29.15 119.29-27.3 117.59-24.13 115.89-20.95 115.89-17.1L115.89-17.1Q115.89-13.05 117.57-9.85 119.24-6.65 122.14-4.9 125.04-3.15 128.64-3.15L128.64-3.15Q131.49-3.15 133.89-4.5 136.29-5.85 137.72-8.2 139.14-10.55 139.19-13.45L139.19-13.45 139.19-14 127.34-14 127.34-17.8Z" opacity="1" transform="matrix(1,0,0,1,0,0)" fill="#ffffff" class="wordmark-text-0" data-fill-palette-color="quaternary" id="text-0"></path></svg></g></svg></g><g transform="matrix(1,0,0,1,0,146.47993837897815)"><svg viewBox="0 0 395.52 40.6192690424684" height="40.6192690424684" width="395.52"><g transform="matrix(1,0,0,1,0,0)"><svg width="395.52" viewBox="2.1500000953674316 -34.599998474121094 439.1100158691406 45.099998474121094" height="40.6192690424684" data-palette-color="#7fdbff"><path d="M17.1-34.6L17.1-34.6Q23.05-34.6 27.25-32.15 31.45-29.7 31.45-26.95L31.45-26.95Q31.45-26.2 31.13-25.68 30.8-25.15 30.33-24.93 29.85-24.7 29.3-24.7L29.3-24.7Q28.4-24.7 26.6-25.63 24.8-26.55 22.6-27.48 20.4-28.4 18.55-28.4L18.55-28.4Q15.6-28.4 15.6-26L15.6-26Q15.6-25.25 16.07-24.58 16.55-23.9 17.6-23.18 18.65-22.45 19.65-21.9 20.65-21.35 22.4-20.43 24.15-19.5 25.35-18.8L25.35-18.8Q29.2-16.6 30.75-14.6 32.3-12.6 32.3-10L32.3-10Q32.3 0.35 18.35 0.35L18.35 0.35Q15.6 0.35 13.03-0.2 10.45-0.75 8.53-1.65 6.6-2.55 5.13-3.65 3.65-4.75 2.9-5.9 2.15-7.05 2.15-8.05L2.15-8.05Q2.15-9.15 2.88-9.93 3.6-10.7 5-10.7L5-10.7Q6.05-10.7 10.05-9.38 14.05-8.05 16.5-8.05L16.5-8.05Q18.75-8.05 18.75-9.6L18.75-9.6Q18.75-10.05 18.57-10.43 18.4-10.8 17.98-11.18 17.55-11.55 17.03-11.88 16.5-12.2 15.58-12.7 14.65-13.2 13.73-13.7 12.8-14.2 11.3-15 9.8-15.8 8.4-16.6L8.4-16.6Q6.55-17.65 5.23-19.2 3.9-20.75 3.3-22.28 2.7-23.8 2.7-25.1L2.7-25.1Q2.7-29.3 6.45-31.95 10.2-34.6 17.1-34.6ZM44.95 0.3L44.95 0.3Q41 0.3 38.4-2.93 35.8-6.15 35.8-11.75L35.8-11.75Q35.8-17.45 38.37-20.83 40.95-24.2 44.95-24.2L44.95-24.2Q49-24.2 52.45-21.35L52.45-21.35Q53.8-23.85 56.8-23.85L56.8-23.85Q59.5-23.85 61-22.68 62.5-21.5 62.5-18.35L62.5-18.35 62.5-5.35Q62.5-2.35 61.25-1.18 60 0 56.85 0L56.85 0Q53.55 0 52.5-1.85L52.5-1.85Q49.3 0.3 44.95 0.3ZM51.75-7.2L51.75-16.55Q50.9-18 49.55-18L49.55-18Q48.25-18 47.45-16.1 46.65-14.2 46.65-11.75L46.65-11.75Q46.65-9.45 47.4-7.65 48.15-5.85 49.5-5.85L49.5-5.85Q50.9-5.85 51.75-7.2L51.75-7.2ZM81.85-26.3L81.85-26.3Q80.8-25.45 80.8-22.35L80.8-22.35Q84.15-22.35 85.45-21.73 86.75-21.1 86.75-19L86.75-19Q86.75-17.3 85.35-16.78 83.95-16.25 80.8-16.25L80.8-16.25 80.8-7.5Q80.8-3.25 79.47-1.63 78.15 0 75.3 0L75.3 0Q72.5 0 71.2-1.58 69.9-3.15 69.9-7.15L69.9-7.15 69.95-16.25Q66.25-16.3 66.25-19.15L66.25-19.15Q66.25-22.1 70-22.3L70-22.3Q70.05-28.75 71.87-31.48 73.7-34.2 78.9-34.2L78.9-34.2Q83.05-34.2 85.37-32.5 87.7-30.8 87.7-29.05L87.7-29.05Q87.7-28.3 87.07-27.73 86.45-27.15 85.3-27.15L85.3-27.15Q82.85-27.15 81.85-26.3ZM102.94 0.3L102.94 0.3Q96.84 0.3 92.87-2.85 88.89-6 88.89-11.45L88.89-11.45Q88.89-17.35 92.82-20.78 96.74-24.2 102.94-24.2L102.94-24.2Q108.79-24.2 111.52-22.13 114.24-20.05 114.24-16.45L114.24-16.45Q114.24-15.75 114.07-15.1 113.89-14.45 113.52-13.83 113.14-13.2 112.52-12.68 111.89-12.15 111.09-11.73 110.29-11.3 109.19-11.08 108.09-10.85 106.84-10.85L106.84-10.85 99.79-10.8Q100.29-9.2 101.59-8.28 102.89-7.35 104.89-7.35L104.89-7.35Q107.04-7.35 109.29-7.9L109.29-7.9Q110.24-8.15 111.37-8.7 112.49-9.25 112.99-9.25L112.99-9.25Q113.84-9.25 114.32-8.75 114.79-8.25 114.79-7.5L114.79-7.5Q114.79-6.6 113.99-5.33 113.19-4.05 111.77-2.78 110.34-1.5 107.99-0.6 105.64 0.3 102.94 0.3ZM99.54-14L99.54-14Q102.99-14.05 103.29-14.05L103.29-14.05Q104.04-14.05 104.39-14.95L104.39-14.95Q104.64-15.6 104.64-16.75L104.64-16.75Q104.64-19.9 102.74-19.9L102.74-19.9Q102.04-19.9 101.37-19.15 100.69-18.4 100.19-17.03 99.69-15.65 99.54-14ZM148.04-26.1L148.04-26.1Q145.89-26.1 144.86-24.85 143.84-23.6 143.84-20.4L143.84-20.4 143.84-14.5 152.14-14.5 152.14-20.5Q152.14-22.6 151.64-23.88 151.14-25.15 150.26-25.63 149.39-26.1 148.04-26.1ZM152.14-4.95L152.14-7.6 143.84-7.6 143.84-4.95Q143.84-2.4 142.49-1.2 141.14 0 137.84 0L137.84 0Q136.44 0 135.54-0.4 134.64-0.8 133.96-1.75 133.29-2.7 132.96-4.53 132.64-6.35 132.46-8.93 132.29-11.5 132.29-15.45L132.29-15.45Q132.29-18.9 133.01-21.78 133.74-24.65 134.96-26.65 136.19-28.65 137.74-30.18 139.29-31.7 141.11-32.55 142.94-33.4 144.66-33.83 146.39-34.25 148.14-34.25L148.14-34.25Q150.24-34.25 152.29-33.68 154.34-33.1 156.44-31.7 158.54-30.3 160.11-28.23 161.69-26.15 162.69-22.85 163.69-19.55 163.69-15.45L163.69-15.45Q163.69-8.85 163.21-5.68 162.74-2.5 161.61-1.25 160.49 0 158.14 0L158.14 0Q154.84 0 153.49-1.2 152.14-2.4 152.14-4.95L152.14-4.95ZM183.44-4.15L183.39-13.45Q183.39-16.25 181.19-16.25L181.19-16.25Q180.14-16.25 179.46-15.38 178.79-14.5 178.69-13.05L178.69-13.05 178.69-5.35Q178.69-2.3 177.44-1.15 176.19 0 173.04 0L173.04 0Q170.09 0 169.01-1.38 167.94-2.75 167.94-5.9L167.94-5.9 167.94-18.2Q167.94-20.75 169.31-22.3 170.69-23.85 172.99-23.85L172.99-23.85Q174.89-23.85 176.19-23.3 177.49-22.75 178.14-21.4L178.14-21.4Q182.04-23.95 187.64-23.95L187.64-23.95Q191.19-23.95 192.76-21.15 194.34-18.35 194.34-11.95L194.34-11.95Q194.34-8.8 194.19-6.83 194.04-4.85 193.71-3.43 193.39-2 192.69-1.3 191.99-0.6 191.06-0.3 190.14 0 188.69 0L188.69 0Q185.89 0 184.66-1.05 183.44-2.1 183.44-4.15L183.44-4.15ZM225.48-28.7L225.48-7.5Q225.48-3.45 224.13-1.73 222.78 0 219.98 0L219.98 0Q216.78 0 215.58-2L215.58-2Q212.33 0.35 207.73 0.35L207.73 0.35Q203.83 0.35 201.23-2.88 198.63-6.1 198.63-11.7L198.63-11.7Q198.63-17.4 201.18-20.78 203.73-24.15 207.73-24.15L207.73-24.15Q211.33-24.15 214.48-21.85L214.48-21.85 214.48-28.25Q214.48-31.3 215.98-32.77 217.48-34.25 219.98-34.25L219.98-34.25Q222.73-34.25 224.11-33.15 225.48-32.05 225.48-28.7L225.48-28.7ZM214.58-7.2L214.58-7.2 214.53-16.55Q213.68-17.95 212.33-17.95L212.33-17.95Q211.48-17.95 210.81-17 210.13-16.05 209.78-14.65 209.43-13.25 209.43-11.7L209.43-11.7Q209.43-9.4 210.18-7.6 210.93-5.8 212.28-5.8L212.28-5.8Q212.53-5.8 212.78-5.85 213.03-5.9 213.23-5.98 213.43-6.05 213.63-6.18 213.83-6.3 213.98-6.45 214.13-6.6 214.28-6.8 214.43-7 214.58-7.2ZM277.43-28.7L277.43-7.5Q277.43-3.45 275.98-1.73 274.53 0 271.58 0L271.58 0Q268.68 0 267.33-1.58 265.98-3.15 265.98-7.15L265.98-7.15 265.93-12.8 255.73-12.8 255.73-7.5Q255.73-3.4 254.33-1.7 252.93 0 249.88 0L249.88 0Q246.98 0 245.63-1.58 244.28-3.15 244.28-7.15L244.28-7.15 244.13-28.25Q244.13-31.35 245.7-32.8 247.28-34.25 249.88-34.25L249.88-34.25Q252.88-34.25 254.3-33.15 255.73-32.05 255.73-28.7L255.73-28.7 255.73-20.3 265.88-20.3 265.88-28.25Q265.88-30.35 266.65-31.73 267.43-33.1 268.65-33.68 269.88-34.25 271.58-34.25L271.58-34.25Q274.48-34.25 275.95-33.15 277.43-32.05 277.43-28.7L277.43-28.7ZM296.33 0.3L296.33 0.3Q290.23 0.3 286.25-2.85 282.28-6 282.28-11.45L282.28-11.45Q282.28-17.35 286.2-20.78 290.13-24.2 296.33-24.2L296.33-24.2Q302.18-24.2 304.9-22.13 307.63-20.05 307.63-16.45L307.63-16.45Q307.63-15.75 307.45-15.1 307.28-14.45 306.9-13.83 306.53-13.2 305.9-12.68 305.28-12.15 304.48-11.73 303.68-11.3 302.58-11.08 301.48-10.85 300.23-10.85L300.23-10.85 293.18-10.8Q293.68-9.2 294.98-8.28 296.28-7.35 298.28-7.35L298.28-7.35Q300.43-7.35 302.68-7.9L302.68-7.9Q303.63-8.15 304.75-8.7 305.88-9.25 306.38-9.25L306.38-9.25Q307.23-9.25 307.7-8.75 308.18-8.25 308.18-7.5L308.18-7.5Q308.18-6.6 307.38-5.33 306.58-4.05 305.15-2.78 303.73-1.5 301.38-0.6 299.03 0.3 296.33 0.3ZM292.93-14L292.93-14Q296.38-14.05 296.68-14.05L296.68-14.05Q297.43-14.05 297.78-14.95L297.78-14.95Q298.03-15.6 298.03-16.75L298.03-16.75Q298.03-19.9 296.13-19.9L296.13-19.9Q295.43-19.9 294.75-19.15 294.08-18.4 293.58-17.03 293.08-15.65 292.93-14ZM321.27 0.3L321.27 0.3Q317.32 0.3 314.72-2.93 312.12-6.15 312.12-11.75L312.12-11.75Q312.12-17.45 314.7-20.83 317.27-24.2 321.27-24.2L321.27-24.2Q325.32-24.2 328.77-21.35L328.77-21.35Q330.12-23.85 333.12-23.85L333.12-23.85Q335.82-23.85 337.32-22.68 338.82-21.5 338.82-18.35L338.82-18.35 338.82-5.35Q338.82-2.35 337.57-1.18 336.32 0 333.17 0L333.17 0Q329.87 0 328.82-1.85L328.82-1.85Q325.62 0.3 321.27 0.3ZM328.07-7.2L328.07-16.55Q327.22-18 325.87-18L325.87-18Q324.57-18 323.77-16.1 322.97-14.2 322.97-11.75L322.97-11.75Q322.97-9.45 323.72-7.65 324.47-5.85 325.82-5.85L325.82-5.85Q327.22-5.85 328.07-7.2L328.07-7.2ZM354.52-28.7L354.52-7.55Q354.52-3.5 353.17-1.75 351.82 0 349.02 0L349.02 0Q346.22 0 344.92-1.58 343.62-3.15 343.62-7.15L343.62-7.15 343.52-28.25Q343.52-29.55 343.8-30.55 344.07-31.55 344.55-32.25 345.02-32.95 345.72-33.4 346.42-33.85 347.25-34.05 348.07-34.25 349.02-34.25L349.02-34.25Q351.77-34.25 353.15-33.15 354.52-32.05 354.52-28.7L354.52-28.7ZM361.62-10.7L361.62-10.7 361.62-16.6Q360.37-16.65 359.62-17.03 358.87-17.4 358.54-18 358.22-18.6 358.22-19.5L358.22-19.5Q358.22-22.35 361.67-22.6L361.67-22.6 361.67-27.25Q361.67-29.15 364.42-30.68 367.17-32.2 369.87-32.2L369.87-32.2Q371.52-32.2 372.02-31.25 372.52-30.3 372.52-28.4L372.52-28.4 372.57-22.65 373.92-22.65Q376.67-22.65 377.69-21.93 378.72-21.2 378.72-19.3L378.72-19.3Q378.72-18.5 378.42-17.95 378.12-17.4 377.44-17.1 376.77-16.8 375.82-16.68 374.87-16.55 373.47-16.55L373.47-16.55 372.57-16.55 372.57-11.05Q372.57-10.25 372.64-9.73 372.72-9.2 372.87-8.9 373.02-8.6 373.29-8.5 373.57-8.4 373.97-8.4L373.97-8.4Q374.57-8.4 374.97-8.83 375.37-9.25 375.59-9.78 375.82-10.3 376.19-10.73 376.57-11.15 377.07-11.15L377.07-11.15Q378.22-11.15 378.84-10.6 379.47-10.05 379.47-9.25L379.47-9.25Q379.47-7.9 378.94-6.35 378.42-4.8 377.42-3.35 376.42-1.9 374.64-0.95 372.87 0 370.67 0L370.67 0Q365.72 0 363.67-2.5 361.62-5 361.62-10.7ZM399.87-4.15L399.82-13.4Q399.82-16.25 397.62-16.25L397.62-16.25Q397.22-16.25 396.89-16.15 396.57-16.05 396.29-15.9 396.02-15.75 395.79-15.48 395.57-15.2 395.39-14.88 395.22-14.55 395.14-14.1 395.07-13.65 395.07-13.1L395.07-13.1 395.07-7.6Q395.07-3.5 393.74-1.78 392.42-0.05 389.72-0.05L389.72-0.05Q386.92-0.05 385.62-1.63 384.32-3.2 384.32-7.2L384.32-7.2 384.22-28.5Q384.22-31.6 385.72-33.05 387.22-34.5 389.72-34.5L389.72-34.5Q392.37-34.5 393.72-33.4 395.07-32.3 395.07-28.95L395.07-28.95 395.07-21.7Q398.77-23.95 404.07-23.95L404.07-23.95Q406.47-23.95 407.92-22.73 409.37-21.5 410.07-18.85 410.77-16.2 410.77-11.9L410.77-11.9Q410.77-9.7 410.69-8.1 410.62-6.5 410.47-5.18 410.32-3.85 410.02-3 409.72-2.15 409.32-1.55 408.92-0.95 408.29-0.63 407.67-0.3 406.92-0.15 406.17 0 405.12 0L405.12 0Q402.32 0 401.09-1.03 399.87-2.05 399.87-4.15L399.87-4.15ZM441.26-14.1L441.26-14.1Q441.26-5.55 440.76-2.15L440.76-2.15Q440.36 0.9 439.51 3.13 438.66 5.35 437.11 7.08 435.56 8.8 433.16 9.65 430.76 10.5 427.46 10.5L427.46 10.5Q424.81 10.5 422.54 9.73 420.26 8.95 418.94 7.83 417.61 6.7 416.86 5.6 416.11 4.5 416.11 3.7 416.11 2.9 416.64 2.23 417.16 1.55 418.06 1.55L418.06 1.55Q418.71 1.55 419.59 1.95 420.46 2.35 421.26 2.85 422.06 3.35 423.16 3.75 424.26 4.15 425.31 4.15L425.31 4.15Q428.01 4.15 429.14 2.8 430.26 1.45 430.26-1.05L430.26-1.05Q429.41-0.7 428.61-0.45 427.81-0.2 427.06-0.05 426.31 0.1 425.64 0.15 424.96 0.2 424.31 0.2L424.31 0.2Q421.36 0.2 419.26-1.45 417.16-3.1 416.24-5.53 415.31-7.95 415.31-10.75L415.31-10.75Q415.31-13.55 415.39-15.5 415.46-17.45 415.71-18.98 415.96-20.5 416.29-21.4 416.61-22.3 417.21-22.88 417.81-23.45 418.56-23.65 419.31-23.85 420.36-23.85L420.36-23.85Q423.51-23.85 424.79-22.78 426.06-21.7 426.06-19.4L426.06-19.4 426.11-11.35Q426.11-10.55 426.11-10.18 426.11-9.8 426.19-9.25 426.26-8.7 426.39-8.45 426.51-8.2 426.74-7.93 426.96-7.65 427.34-7.55 427.71-7.45 428.26-7.45L428.26-7.45Q429.76-7.45 430.14-8.28 430.51-9.1 430.51-11.3L430.51-11.3 430.56-19.4Q430.56-20.95 431.09-21.9 431.61-22.85 432.86-23.35 434.11-23.85 436.26-23.85L436.26-23.85Q437.56-23.85 438.49-23.43 439.41-23 439.96-22.33 440.51-21.65 440.79-20.33 441.06-19 441.16-17.65 441.26-16.3 441.26-14.1Z" opacity="1" transform="matrix(1,0,0,1,0,0)" fill="#000000" class="slogan-text-1" data-fill-palette-color="secondary" id="text-1"></path></svg></g></svg></g></svg></g></svg></g><g><svg viewBox="0 0 152.26705024532495 193.9283284923294" height="193.9283284923294" width="152.26705024532495"><g><svg xmlns="http://www.w3.org/2000/svg" xmlns:xlink="http://www.w3.org/1999/xlink" version="1.1" x="0" y="0" viewBox="10.843999862670898 1.032202959060669 76.81999969482422 97.83846282958984" enable-background="new 0 0 100 100" xml:space="preserve" height="193.9283284923294" width="152.26705024532495" class="icon-icon-0" data-fill-palette-color="accent" id="icon-0"><g fill="#0074d9" data-fill-palette-color="accent"><path fill="#000000" d="M15.395 28.561c0.473 0.25 0.826 0.735 0.826 1.455v8.309c0 0.719-0.354 1.204-0.826 1.453v19.397c0.473 0.25 0.826 0.732 0.826 1.453v8.307c0 0.721-0.354 1.205-0.826 1.453v0.717c0 1.492 1.275 3.359 2.863 4.033l26.397 11.156c1.433 0.602 2.221-0.035 2.221-1.184v-43.83c0-1.494-1.274-3.361-2.864-4.032L17.615 26.092c-1.432-0.605-2.221 0.035-2.221 1.184V28.561L15.395 28.561zM21.998 83.244l-4.674 1.975c-0.11 0.045-0.215 0.062-0.305 0.055-0.092 0.008-0.195-0.01-0.305-0.055L11.51 83.02c-0.265-0.111-0.492-0.361-0.599-0.629-0.044-0.07-0.067-0.158-0.067-0.262v-8.643l0.006-0.129V20.646c0-0.598 0.127-1.112 0.355-1.529 0.643-1.718 2.092-3.339 3.778-4.051L47.359 1.387c0.761-0.321 1.473-0.417 2.084-0.317 0.521-0.017 1.1 0.095 1.709 0.353l32.375 13.679c1.662 0.702 3.094 2.287 3.752 3.978 0.24 0.423 0.373 0.95 0.373 1.566v0.099l0.008 0.235v52.471l0.004 8.709c0 0.145-0.021 0.227-0.057 0.293-0.104 0.275-0.336 0.537-0.607 0.652l-5.207 2.199c-0.111 0.047-0.211 0.064-0.305 0.055-0.09 0.01-0.193-0.008-0.303-0.055l-4.779-2.018-20.83 8.797-0.002 3.586c0 0.143-0.02 0.225-0.055 0.293-0.104 0.277-0.338 0.537-0.607 0.654l-5.205 2.197c-0.111 0.047-0.213 0.064-0.305 0.055-0.092 0.01-0.195-0.008-0.305-0.055l-5.205-2.197c-0.264-0.113-0.492-0.363-0.6-0.631-0.043-0.07-0.066-0.156-0.066-0.264v-3.51L21.998 83.244 21.998 83.244zM19.156 55.303c0.5 2.16 2.178 3.576 3.748 3.164 1.57-0.41 2.438-2.496 1.938-4.656s-2.178-3.578-3.746-3.166C19.523 51.057 18.656 53.143 19.156 55.303L19.156 55.303zM20.93 48.917c0.694-1.844 1.977-3.221 3.652-3.661 3.196-0.838 6.609 2.046 7.625 6.444 1.017 4.398-0.75 8.641-3.944 9.479-1.53 0.4-3.109-0.049-4.45-1.113-0.152 0.068-0.31 0.123-0.473 0.166-2.261 0.592-4.678-1.449-5.398-4.561-0.719-3.111 0.531-6.116 2.793-6.708L20.93 48.917 20.93 48.917zM34.339 65.76v-7.832c0-2.084 1.165-4.203 2.832-5.584 0.009-1.666 0.815-3.08 2.079-3.411 1.571-0.412 3.248 1.006 3.748 3.167 0.5 2.16-0.368 4.246-1.938 4.66-0.684 0.178-1.387 0.012-2.006-0.412-0.365 0.531-0.584 1.115-0.584 1.58v7.832C38.471 68.512 34.339 68.512 34.339 65.76L34.339 65.76z" data-fill-palette-color="accent"></path></g></svg></g></svg></g></svg></g><defs></defs></svg><rect width="395.52" height="137.08682440140853" fill="none" stroke="none" visibility="hidden"></rect></g></svg></g></svg>